<svg width="18" height="16" viewBox="0 0 18 16" fill="none" xmlns="http://www.w3.org/2000/svg">
<path d="M2.16973 11.7493C2.16973 11.4661 2.28227 11.1944 2.48248 10.9942C2.68283 10.7939 2.95446 10.6815 3.23758 10.6815C3.42537 10.6823 3.60961 10.7327 3.77155 10.8273C3.93462 10.9214 4.06982 11.0569 4.16351 11.2201C4.25734 11.3833 4.30636 11.5682 4.30554 11.7564C4.30554 11.8065 4.30199 11.8564 4.29489 11.9059C4.24682 12.2348 4.04975 12.5229 3.76092 12.6873C3.59895 12.782 3.41458 12.8319 3.22695 12.8315C2.94316 12.8286 2.67207 12.7129 2.47362 12.5099C2.27532 12.3069 2.16593 12.0332 2.16976 11.7493L2.16973 11.7493ZM15.9423 4.51221H11.7951C11.6764 4.78398 11.5233 5.03951 11.3394 5.27221C10.5699 6.25796 9.33859 6.76641 8.09786 6.61059C6.857 6.45476 5.78958 5.65774 5.28781 4.51218H1.14622C0.84263 4.51272 0.551593 4.63331 0.336927 4.84787C0.122104 5.06228 0.000964861 5.35303 1.04028e-05 5.65664V6.69074H17.0869V5.65664C17.0865 5.35332 16.9658 5.06243 16.7512 4.84787C16.5367 4.63345 16.2459 4.51273 15.9425 4.51218L15.9423 4.51221ZM4.83068 11.9878C4.83068 12.0394 4.81292 12.0928 4.80036 12.1444V12.1443C4.79954 12.1538 4.79954 12.1634 4.80036 12.1728C4.78329 12.2332 4.76308 12.2926 4.73986 12.3508C4.73412 12.3659 4.72757 12.3808 4.72033 12.3953C4.7008 12.4398 4.67936 12.4843 4.6545 12.5287L4.63497 12.5661C4.60288 12.6195 4.56915 12.6694 4.5335 12.7174L4.50687 12.7495C4.48912 12.7726 4.473 12.7958 4.45348 12.8171H4.45334C4.49895 12.8199 4.5447 12.8199 4.59032 12.8171C4.97448 12.8171 5.32931 12.6121 5.52132 12.2796C5.71347 11.9469 5.71347 11.5372 5.52132 11.2045C5.3293 10.872 4.97448 10.667 4.59032 10.667C4.5447 10.6643 4.49895 10.6643 4.45334 10.667C4.47109 10.6865 4.48721 10.708 4.50319 10.7293L4.53528 10.7685H4.53514C4.57052 10.8158 4.60316 10.8653 4.63307 10.9162C4.63307 10.9304 4.64905 10.9448 4.65615 10.959C4.67991 11.0017 4.70122 11.0445 4.7202 11.0871C4.7202 11.1031 4.7344 11.1174 4.73973 11.1334H4.73986C4.76363 11.1914 4.78384 11.2508 4.80036 11.3113C4.79954 11.322 4.79954 11.3328 4.80036 11.3434C4.8132 11.3944 4.82331 11.4461 4.83068 11.4983C4.8315 11.5154 4.8315 11.5327 4.83068 11.5498C4.84721 11.675 4.84721 11.8019 4.83068 11.9271C4.83178 11.9473 4.83178 11.9675 4.83068 11.9878L4.83068 11.9878ZM0 8.35871H17.0869V7.22315H0V8.35871ZM0 8.89269H17.0869V14.2216C17.0879 14.5257 16.9677 14.8177 16.753 15.0331C16.5383 15.2484 16.2466 15.3696 15.9424 15.3696H1.14623C0.841955 15.3696 0.550097 15.2486 0.335151 15.0332C0.120055 14.8178 -0.000538498 14.5258 1.04028e-05 14.2216L0 8.89269ZM8.03808 11.0784C8.03808 11.2257 8.15758 11.3454 8.30507 11.3454H15.1859C15.3334 11.3454 15.4529 11.2257 15.4529 11.0784C15.4529 10.9309 15.3334 10.8114 15.1859 10.8114H8.30507C8.15758 10.8114 8.03808 10.9309 8.03808 11.0784ZM8.03808 12.4204V12.4203C8.03808 12.5678 8.15758 12.6873 8.30507 12.6873H15.1859C15.3334 12.6873 15.4529 12.5678 15.4529 12.4203C15.4529 12.2729 15.3334 12.1534 15.1859 12.1534H8.30507C8.15758 12.1534 8.03808 12.2729 8.03808 12.4203V12.4204ZM1.63062 11.7495V11.7494C1.63062 12.1742 1.79942 12.5816 2.09974 12.882C2.40019 13.1825 2.80758 13.3513 3.23243 13.3513C3.46815 13.3547 3.70169 13.3056 3.91597 13.2071C4.1252 13.3061 4.35369 13.3577 4.58518 13.3584C5.15998 13.3584 5.69126 13.0517 5.97858 12.5539C6.26606 12.0561 6.26606 11.4427 5.97858 10.9448C5.69124 10.447 5.15998 10.1404 4.58518 10.1404C4.35315 10.1411 4.1241 10.1927 3.91422 10.2916C3.705 10.1926 3.4765 10.141 3.24502 10.1404C2.81768 10.1385 2.4073 10.3073 2.10509 10.6095C1.803 10.9116 1.63405 11.322 1.63597 11.7494L1.63062 11.7495ZM11.5587 3.08839C11.5331 4.14791 10.9529 5.11604 10.0309 5.63844C9.10896 6.1608 7.98022 6.1608 7.05824 5.63844C6.13626 5.11607 5.5561 4.14791 5.53044 3.08839C5.51064 2.27623 5.81942 1.49053 6.38687 0.909148C6.9543 0.327767 7.7322 0 8.54468 0C9.35698 0 10.1349 0.327767 10.7023 0.909148C11.2698 1.49053 11.5786 2.27623 11.5588 3.08839H11.5587ZM9.94256 2.29273H9.94269C9.89284 2.24233 9.82483 2.21393 9.75395 2.21393C9.68308 2.21393 9.6152 2.24233 9.56535 2.29273L8.18765 3.6669L7.52379 3.00305V3.00291C7.41918 2.89871 7.24983 2.89912 7.14564 3.00387C7.04144 3.10848 7.04185 3.27782 7.14646 3.38201L7.99908 4.23285C8.04852 4.28379 8.1168 4.31206 8.18768 4.3111C8.25856 4.31151 8.32657 4.28324 8.37642 4.23285L9.94274 2.66652C10.0459 2.56191 10.0459 2.39379 9.94274 2.28918L9.94256 2.29273Z" fill="#4C6487"/>
</svg>
