<svg width="17" height="15" viewBox="0 0 17 15" fill="none" xmlns="http://www.w3.org/2000/svg">
<path d="M16.557 2.30978C15.9634 2.58609 15.325 2.77029 14.6516 2.85734C15.3363 2.43041 15.863 1.74945 16.1102 0.944898C15.4696 1.33945 14.7599 1.62912 14.0048 1.78183C13.4018 1.11038 12.5417 0.693848 11.5889 0.693848C9.75839 0.693848 8.27495 2.23878 8.27495 4.14349C8.27495 4.41296 8.30493 4.6756 8.3615 4.93051C5.60787 4.78523 3.16565 3.41025 1.53174 1.32341C1.24467 1.83323 1.08318 2.43041 1.08318 3.06056C1.08318 4.25817 1.66694 5.31229 2.557 5.93353C2.01368 5.916 1.50233 5.75735 1.05461 5.50273C1.05461 5.51313 1.05461 5.52858 1.05461 5.54314C1.05461 7.21671 2.19724 8.61012 3.71179 8.92742C3.4349 9.00704 3.14245 9.05131 2.84096 9.05131C2.62686 9.05131 2.41841 9.02576 2.21647 8.98773C2.63817 10.3553 3.86169 11.355 5.31119 11.3844C4.17704 12.3081 2.74876 12.8613 1.19546 12.8613C0.927054 12.8613 0.664872 12.8453 0.405518 12.8123C1.87255 13.7883 3.61506 14.3605 5.48541 14.3605C11.5801 14.3605 14.9141 9.10301 14.9141 4.5422C14.9141 4.39276 14.9096 4.24391 14.9028 4.09685C15.5536 3.61436 16.1141 3.0053 16.557 2.30978Z" fill="#00B2FF"/>
</svg>
