<svg width="13" height="14" viewBox="0 0 13 14" fill="none" xmlns="http://www.w3.org/2000/svg">
<path d="M3.86232 0.936035C1.82739 0.936035 0.171631 2.59428 0.171631 4.63158V9.90966C0.171631 11.9467 1.82837 13.6042 3.86381 13.6042H9.13707C11.1723 13.6042 12.8283 11.946 12.8283 9.90867V4.6301C12.8283 2.59331 11.1715 0.936035 9.13609 0.936035H3.86232ZM10.2969 2.96294C10.5764 2.96294 10.8032 3.18996 10.8032 3.46967C10.8032 3.74938 10.5764 3.9764 10.2969 3.9764C10.0175 3.9764 9.79067 3.74938 9.79067 3.46967C9.79067 3.18996 10.0175 2.96294 10.2969 2.96294ZM6.49995 3.9764C8.31491 3.9764 9.79067 5.45351 9.79067 7.27013C9.79067 9.08674 8.31465 10.5639 6.49995 10.5639C4.68499 10.5639 3.20922 9.08649 3.20922 7.27013C3.20922 5.45376 4.68499 3.9764 6.49995 3.9764ZM6.49995 4.98985C5.24162 4.98985 4.22175 6.01065 4.22175 7.27013C4.22175 8.5296 5.24162 9.5504 6.49995 9.5504C7.75827 9.5504 8.77814 8.5296 8.77814 7.27013C8.77814 6.01065 7.75827 4.98985 6.49995 4.98985Z" fill="#D23939"/>
</svg>
