<svg width="18" height="12" viewBox="0 0 18 12" fill="none" xmlns="http://www.w3.org/2000/svg">
<path d="M15.3829 2.60001H7.58312C7.46183 2.60001 7.36651 2.69533 7.36651 2.81662V6.49991H1.73319V0.216612C1.73319 0.0953211 1.63787 0 1.51658 0H0.216612C0.0953211 0 0 0.0953211 0 0.216612V11.4829C0 11.6042 0.0953211 11.6995 0.216612 11.6995H1.51658C1.63787 11.6995 1.73319 11.6042 1.73319 11.4829V9.09955H16.0328V11.483C16.0328 11.6043 16.1282 11.6996 16.2495 11.6996H17.5494C17.6707 11.6996 17.766 11.6043 17.766 11.483L17.7662 4.98319C17.7662 3.67014 16.6959 2.59986 15.3829 2.59986L15.3829 2.60001ZM7.36659 8.6664H1.51673C1.39544 8.6664 1.30012 8.76172 1.30012 8.88302V11.2663H0.433521V0.433149H1.30012L1.29997 6.71645C1.29997 6.83774 1.39529 6.93306 1.51658 6.93306H7.36644L7.36659 8.6664ZM17.3329 11.2663H16.4663V8.88316C16.4663 8.76187 16.371 8.66655 16.2497 8.66655L7.79988 8.66641V3.03309L15.3832 3.03323C16.4578 3.03323 17.3331 3.90852 17.3331 4.98319L17.3329 11.2663Z" fill="black"/>
<path d="M2.59985 3.68347C2.59985 4.75814 3.47514 5.63343 4.54981 5.63343C5.62447 5.63343 6.49976 4.75814 6.49976 3.68347C6.49976 2.60881 5.62447 1.73352 4.54981 1.73352C3.47514 1.73352 2.59985 2.60881 2.59985 3.68347ZM6.06653 3.68347C6.06653 4.51976 5.38624 5.20005 4.54995 5.20005C3.71367 5.20005 3.03337 4.51976 3.03337 3.68347C3.03337 2.84718 3.71367 2.16689 4.54995 2.16689C5.38624 2.16675 6.06653 2.84704 6.06653 3.68347Z" fill="black"/>
</svg>
