<svg width="23" height="22" viewBox="0 0 23 22" fill="none" xmlns="http://www.w3.org/2000/svg">
<path d="M21.0174 1.89995H18.6291V0H17.7885V1.89995H15.6161V0H14.7755V1.89995H7.26142V0H6.42103V1.89995H4.24849V0H3.40792V1.89995H1.02879C0.893878 1.8996 0.760364 1.92599 0.635762 1.97754C0.510985 2.02892 0.397746 2.10459 0.302155 2.20018C0.206565 2.2956 0.130722 2.40919 0.0788174 2.53414C0.027092 2.65909 0.00017788 2.79295 3.40438e-06 2.92839V20.5124C-0.000346084 20.648 0.026217 20.7824 0.0777706 20.9079C0.129496 21.0334 0.205169 21.1473 0.300759 21.2432C0.39635 21.3393 0.509942 21.4154 0.634715 21.4673C0.759666 21.519 0.89353 21.5456 1.02879 21.5454H21.0174C21.1527 21.5456 21.2866 21.519 21.4115 21.4673C21.5363 21.4154 21.6499 21.3393 21.7455 21.2432C21.8411 21.1473 21.9169 21.0334 21.9685 20.9079C22.02 20.7824 22.0466 20.648 22.0462 20.5124V2.92839C22.0461 2.79295 22.0191 2.65909 21.9674 2.53414C21.9155 2.40919 21.8397 2.2956 21.7441 2.20018C21.6485 2.10459 21.5352 2.02892 21.4105 1.97754C21.2859 1.92599 21.1524 1.8996 21.0174 1.89995ZM21.2196 20.5125C21.2191 20.5661 21.1976 20.6175 21.1599 20.6554C21.1221 20.6934 21.0709 20.7149 21.0174 20.7154H1.02879C0.975314 20.7148 0.924112 20.6934 0.886363 20.6554C0.848613 20.6175 0.827121 20.5661 0.826598 20.5125V6.76514H21.2197L21.2196 20.5125ZM21.2196 5.91647H0.826553V2.92815C0.827252 2.87502 0.848922 2.82417 0.886846 2.78712C0.924768 2.7499 0.975797 2.72928 1.02875 2.72998H3.40788V4.28389H4.24845V2.72998H6.42099V4.28389H7.26138V2.72998H14.7755V4.28389H15.616V2.72998H17.7884V4.28389H18.629V2.72998H21.0174C21.0704 2.72928 21.1214 2.7499 21.1593 2.78712C21.1972 2.82417 21.2189 2.87502 21.2196 2.92815L21.2196 5.91647Z" fill="#4E4E4E"/>
<path d="M18.64 10.2037H15.637V11.049H18.64V10.2037Z" fill="#4E4E4E"/>
<path d="M12.7782 10.1665H9.77539V11.0118H12.7782V10.1665Z" fill="#4E4E4E"/>
<path d="M5.36785 8.99764C5.68311 8.99764 5.99122 9.09149 6.25316 9.26712C6.5153 9.44292 6.71941 9.69282 6.84016 9.9852C6.96074 10.2776 6.9922 10.5993 6.93086 10.9096C6.86934 11.22 6.71748 11.5051 6.49467 11.7287C6.27185 11.9526 5.98788 12.105 5.67875 12.1667C5.36978 12.2284 5.04929 12.1967 4.75814 12.0756C4.467 11.9545 4.21816 11.7494 4.04306 11.4864C3.86795 11.2232 3.77446 10.9138 3.77446 10.5976C3.77498 10.1732 3.9431 9.7666 4.24174 9.46673C4.54039 9.16685 4.94546 8.99802 5.36787 8.9977L5.36785 8.99764ZM5.36785 8.21353C4.89829 8.21353 4.43937 8.35334 4.04882 8.6153C3.65841 8.87726 3.35418 9.24967 3.17434 9.68515C2.99469 10.1208 2.94768 10.6002 3.03925 11.0626C3.131 11.525 3.35713 11.9498 3.68915 12.283C4.02119 12.6165 4.44427 12.8435 4.90475 12.9356C5.36524 13.0275 5.84267 12.9803 6.27658 12.8C6.71032 12.6195 7.08114 12.314 7.34205 11.9218C7.60295 11.5299 7.74224 11.069 7.74224 10.5975C7.74224 9.96524 7.49198 9.35882 7.0467 8.91181C6.6016 8.46478 5.99766 8.2135 5.36784 8.2135L5.36785 8.21353Z" fill="#4E4E4E"/>
<path d="M6.00424 10.1683H4.75195V11.0136H6.00424V10.1683Z" fill="#4E4E4E"/>
<path d="M18.64 12.9707H15.637V13.816H18.64V12.9707Z" fill="#4E4E4E"/>
<path d="M12.7782 12.9337H9.77539V13.779H12.7782V12.9337Z" fill="#4E4E4E"/>
<path d="M18.64 15.7377H15.637V16.583H18.64V15.7377Z" fill="#4E4E4E"/>
<path d="M12.7782 15.7001H9.77539V16.5454H12.7782V15.7001Z" fill="#4E4E4E"/>
<path d="M6.85383 15.743H3.85083V16.5884H6.85383V15.743Z" fill="#4E4E4E"/>
</svg>
