<svg width="19" height="17" viewBox="0 0 19 17" fill="none" xmlns="http://www.w3.org/2000/svg">
<path d="M6.18797 7.40878C6.18797 7.99473 5.71285 8.4699 5.12685 8.4699C4.54089 8.4699 4.06604 7.99477 4.06604 7.40878C4.06604 6.82278 4.54086 6.34766 5.12685 6.34766C5.71281 6.34766 6.18797 6.82278 6.18797 7.40878Z" fill="#DA8907"/>
<path d="M10.5293 7.40878C10.5293 7.99473 10.0542 8.4699 9.46816 8.4699C8.8822 8.4699 8.40735 7.99477 8.40735 7.40878C8.40735 6.82278 8.88217 6.34766 9.46816 6.34766C10.0541 6.34766 10.5293 6.82278 10.5293 7.40878Z" fill="#DA8907"/>
<path d="M14.8705 7.40878C14.8705 7.99473 14.3953 8.4699 13.8093 8.4699C13.2234 8.4699 12.7485 7.99477 12.7485 7.40878C12.7485 6.82278 13.2234 6.34766 13.8093 6.34766C14.3953 6.34766 14.8705 6.82278 14.8705 7.40878Z" fill="#DA8907"/>
<path d="M0.651371 16.8819C0.565066 16.8819 0.478155 16.8647 0.395184 16.8295C0.155656 16.7272 0 16.4919 0 16.2308L0.00030282 3.56841C0.00030282 1.60098 1.60098 0 3.56841 0H15.4316C17.399 0 19 1.60098 19 3.56841V10.53C19 12.4974 17.399 14.0981 15.4316 14.0981H3.82965L1.10127 16.7014C0.978026 16.8198 0.816013 16.8819 0.651278 16.8819L0.651371 16.8819ZM3.56875 1.30233C2.31933 1.30233 1.30302 2.31887 1.30302 3.56829V14.709L3.11936 12.976C3.24049 12.86 3.40159 12.7958 3.56905 12.7958L15.4315 12.7961C16.6809 12.7961 17.6974 11.7799 17.6974 10.5304V3.5685C17.6974 2.31908 16.6809 1.30254 15.4315 1.30254L3.56875 1.30233Z" fill="#DA8907"/>
</svg>
