<svg width="126" height="53" viewBox="0 0 126 53" fill="none" xmlns="http://www.w3.org/2000/svg">
<path d="M56.0752 46H53.041V37.6211H44.4844V46H41.4375V27.4395H44.4844V35.0312H53.041V27.4395H56.0752V46ZM77.4668 36.6943C77.4668 38.1247 77.2848 39.4281 76.9209 40.6045C76.5654 41.7725 76.028 42.7796 75.3086 43.626C74.5892 44.4639 73.6878 45.1113 72.6045 45.5684C71.5212 46.0254 70.2516 46.2539 68.7959 46.2539C67.3148 46.2539 66.0283 46.0254 64.9365 45.5684C63.8532 45.1113 62.9518 44.4596 62.2324 43.6133C61.5215 42.7669 60.9883 41.7555 60.6328 40.5791C60.2773 39.4027 60.0996 38.0993 60.0996 36.6689C60.0996 34.7562 60.4128 33.0889 61.0391 31.667C61.6738 30.2367 62.6344 29.1279 63.9209 28.3408C65.2158 27.5452 66.8493 27.1475 68.8213 27.1475C70.751 27.1475 72.3548 27.541 73.6328 28.3281C74.9108 29.1152 75.8672 30.224 76.502 31.6543C77.1452 33.0762 77.4668 34.7562 77.4668 36.6943ZM63.2988 36.6943C63.2988 38.1247 63.4935 39.3646 63.8828 40.4141C64.2721 41.4551 64.8688 42.2591 65.6729 42.8262C66.4854 43.3848 67.5264 43.6641 68.7959 43.6641C70.0739 43.6641 71.1149 43.3848 71.9189 42.8262C72.723 42.2591 73.3154 41.4551 73.6963 40.4141C74.0771 39.3646 74.2676 38.1247 74.2676 36.6943C74.2676 34.5192 73.8317 32.818 72.96 31.5908C72.0967 30.3551 70.7171 29.7373 68.8213 29.7373C67.5518 29.7373 66.5065 30.0166 65.6855 30.5752C64.873 31.1338 64.2721 31.9336 63.8828 32.9746C63.4935 34.0072 63.2988 35.2471 63.2988 36.6943ZM87.8896 46H84.8301V30.0293H79.3965V27.4395H93.3105V30.0293H87.8896V46ZM106.666 46H96.1543V27.4395H106.666V30.0039H99.2012V35.0439H106.196V37.5957H99.2012V43.4229H106.666V46ZM110.678 46V27.4395H113.725V43.4102H121.608V46H110.678Z" fill="#597193"/>
<path d="M20 12L30 19.878V46H20V12Z" fill="#353637"/>
<path d="M10 18L20 24.125V46H10V18Z" fill="#597193"/>
<path d="M0 0L10 7.66667V46H0V0Z" fill="#AAC7F0"/>
</svg>
